<svg width="56" height="64" viewBox="0 0 56 64" fill="none" xmlns="http://www.w3.org/2000/svg">
<path d="M34.9293 63.7104C37.1669 63.7104 39.1182 61.8527 39.1182 59.7225V50.4091H41.9152C43.5937 50.4091 44.7122 49.3438 44.7122 47.7464V21.146H11.1748V47.7466C11.1748 49.3442 12.2936 50.4093 13.9718 50.4093H16.769V59.7227C16.769 61.8529 18.7199 63.7106 20.9579 63.7106C23.1953 63.7106 25.1464 61.8529 25.1464 59.7227V50.4093H30.7406V59.7227C30.7404 61.8527 32.6917 63.7104 34.9293 63.7104Z" fill="#03153B"/>
<path d="M51.6977 47.7466C53.9353 47.7466 55.8862 45.8891 55.8862 43.7587V25.1322C55.8862 23.0132 53.9353 21.146 51.6977 21.146C49.4599 21.146 47.5088 23.0132 47.5088 25.1322V43.7587C47.5088 45.8889 49.4597 47.7466 51.6977 47.7466Z" fill="#03153B"/>
<path d="M4.18847 47.7466C6.42629 47.7466 8.37738 45.8891 8.37738 43.7587V25.1322C8.37738 23.0132 6.42651 21.146 4.18847 21.146C1.95087 21.146 0 23.0132 0 25.1322V43.7587C0 45.8889 1.95087 47.7466 4.18847 47.7466Z" fill="#03153B"/>
<path d="M41.3556 0.401806C40.7964 -0.133935 39.9639 -0.133935 39.4047 0.401806L35.6533 3.96129L35.4802 4.12584C33.2558 3.06542 30.7618 2.53584 27.9845 2.53074C27.9709 2.53074 27.9575 2.53031 27.9439 2.53031H27.9434C27.9293 2.53031 27.9164 2.53074 27.9023 2.53074C25.1252 2.53584 22.6312 3.06542 20.407 4.12584L20.2335 3.96129L16.4823 0.401806C15.9227 -0.133935 15.0906 -0.133935 14.5314 0.401806C13.9718 0.93457 13.9718 1.72521 14.5314 2.25755L18.1603 5.71287C16.991 6.4561 15.9307 7.36559 15.0086 8.40582C12.8012 10.8968 11.3932 14.1387 11.1996 17.6512C11.1978 17.6877 11.194 17.7239 11.1922 17.7604C11.1804 17.9996 11.1748 18.2401 11.1748 18.4814H44.7122C44.7122 18.2401 44.7062 17.9996 44.6948 17.7604C44.693 17.7239 44.6892 17.6877 44.687 17.6512C44.4938 14.1387 43.0854 10.8966 40.8779 8.40603C39.9563 7.3658 38.8956 6.45631 37.7263 5.71308L41.3556 2.25776C41.9152 1.72521 41.9152 0.93457 41.3556 0.401806ZM20.9526 13.8321C19.7954 13.8321 18.8572 12.939 18.8572 11.8373C18.8572 10.7357 19.7954 9.84254 20.9526 9.84254C22.1098 9.84254 23.0479 10.7357 23.0479 11.8373C23.0479 12.939 22.1098 13.8321 20.9526 13.8321ZM34.9345 13.8321C33.7772 13.8321 32.8391 12.939 32.8391 11.8373C32.8391 10.7357 33.7772 9.84254 34.9345 9.84254C36.0917 9.84254 37.0298 10.7357 37.0298 11.8373C37.0298 12.939 36.0917 13.8321 34.9345 13.8321Z" fill="#03153B"/>
</svg>
