<svg width="14" height="8" viewBox="0 0 14 8" fill="none" xmlns="http://www.w3.org/2000/svg">
<path d="M14.0003 1.16984C14.0008 1.31923 13.9678 1.46684 13.9038 1.60182C13.8398 1.7368 13.7463 1.85572 13.6303 1.94984L7.63028 6.77984C7.45134 6.92692 7.2269 7.00732 6.99528 7.00732C6.76365 7.00732 6.53921 6.92692 6.36028 6.77984L0.360276 1.77984C0.156059 1.6101 0.0276344 1.36619 0.00325468 1.10176C-0.0211251 0.837334 0.0605368 0.574053 0.230275 0.369836C0.400014 0.16562 0.643925 0.0371957 0.908352 0.0128159C1.17278 -0.0115638 1.43606 0.0700976 1.64028 0.239836L7.00028 4.70984L12.3603 0.389836C12.5071 0.267553 12.6858 0.189876 12.8753 0.165996C13.0649 0.142117 13.2573 0.173034 13.4299 0.25509C13.6024 0.337146 13.7478 0.466906 13.8489 0.629016C13.95 0.791126 14.0025 0.978802 14.0003 1.16984Z" fill="#4F4F4F"/>
</svg>
