<svg width="74" height="74" viewBox="0 0 74 74" fill="none" xmlns="http://www.w3.org/2000/svg">
<g clip-path="url(#clip0_470_2150)">
<path d="M50.8718 0C46.9267 0.272873 42.3156 2.79811 39.6285 6.08646C37.1773 9.06957 35.1608 13.5003 35.947 17.8061C40.2575 17.9403 44.7114 15.3549 47.2921 12.0111C49.7063 8.89845 51.5332 4.49547 50.8718 0Z" fill="black"/>
<path d="M66.4629 24.8266C62.675 20.0768 57.3517 17.3203 52.3244 17.3203C45.6875 17.3203 42.8802 20.4977 38.2691 20.4977C33.5146 20.4977 29.9025 17.3296 24.1629 17.3296C18.525 17.3296 12.5218 20.7752 8.71548 26.6674C3.36439 34.9646 4.28013 50.5646 12.952 63.8522C16.0553 68.6066 20.1993 73.9531 25.6198 73.9994C30.4436 74.0456 31.8033 70.9053 38.3384 70.8729C44.8735 70.8359 46.113 74.041 50.9276 73.9901C56.3527 73.9485 60.7233 68.0239 63.8267 63.2694C66.0513 59.8608 66.8791 58.145 68.6043 54.297C56.0567 49.5194 54.0448 31.6762 66.4629 24.8266Z" fill="black"/>
</g>
<defs>
<clipPath id="clip0_470_2150">
<rect width="74" height="74" fill="white"/>
</clipPath>
</defs>
</svg>
